:SAMPLES-PER-SECOND 30
:FULLY-SPECIFIED
:DEGREES
286
root  37.452 37.3427 0.568979 -144.909 81.3496 -136.012
RightUpLeg  -12.3054 -10.8422 7.45414
RightLeg  28.6332 0.744133 0.188179
RightFoot  -7.36779 0.139009 -5.43695
RightToes  -1.33073e-015 0 -3.6325e-017
Spine  15.4827 -3.61206 15.8334
Spine1  12.9404 -0.733331 -0.233172
HEad  -7.42176 -3.63195 -4.85147
LeftShoulder1  0.190044 2.96793 -29.307
LeftArm  -2.53773 -5.41493 -37.8705
LeftForeArm  14.421 -68.9348 -29.9275
LeftHand  0.00562408 2.89819 -1.03566
RightShoulder  -0.127302 -3.88356 24.9726
RightArm  -7.91386 -6.66417 32.0932
RightForeArm  64.7806 78.8482 88.1672
RightHand  -0.214203 0.825906 -4.09962
LeftUpLeg  -16.7646 1.38552 8.04966
LeftLeg  70.4549 -1.84973 -4.97343
LeftFoot  2.02687 0.276302 -2.42363
LeftToes  -1.03319e-009 7.52634e-011 -3.26162e-012
287
root  38.4387 37.5435 0.584413 -144.114 82.1295 -135.677
RightUpLeg  -10.6197 -10.3803 6.99415
RightLeg  27.8789 0.971064 0.331649
RightFoot  -8.62957 0.0719883 -5.52329
RightToes  -1.33073e-015 0 -3.6325e-017
Spine  16.3163 -3.2597 15.6746
Spine1  13.1875 -0.357857 -0.744543
HEad  -8.29923 -4.1205 -4.59971
LeftShoulder1  0.252666 2.79533 -29.533
LeftArm  -1.68433 -9.10603 -38.0359
LeftForeArm  10.1671 -65.6955 -25.1636
LeftHand  0.00282469 2.70064 -0.775397
RightShoulder  -0.0328045 -3.58542 24.1476
RightArm  -7.65115 -3.13214 33.66
RightForeArm  44.5626 77.9124 65.6864
RightHand  -0.196669 1.42863 -3.46797
LeftUpLeg  -20.868 1.51371 7.33441
LeftLeg  66.3448 -2.32383 -5.11639
LeftFoot  -0.49848 0.0781729 -0.809548
LeftToes  -1.03319e-009 7.52634e-011 -3.26162e-012
288
root  39.4469 37.7151 0.626807 -143.545 83.1074 -135.694
RightUpLeg  -9.18065 -10.261 6.36017
RightLeg  27.4014 1.50772 0.641211
RightFoot  -9.95559 0.00313354 -5.70919
RightToes  -1.33073e-015 0 -3.6325e-017
Spine  16.7846 -2.72036 15.6988
Spine1  13.6821 0.391689 -1.87497
HEad  -9.83712 -4.82888 -3.78409
LeftShoulder1  0.391195 2.40098 -29.3927
LeftArm  -0.666708 -12.7778 -38.2337
LeftForeArm  7.81917 -62.623 -21.727
LeftHand  -0.00552348 2.40802 -0.328604
RightShoulder  0.0240113 -3.39701 23.5446
RightArm  -7.51892 0.0830471 35.0197
RightForeArm  30.2482 75.7031 49.6767
RightHand  -0.136453 1.0247 -2.58679
LeftUpLeg  -23.6317 1.59977 6.63336
LeftLeg  58.902 -3.10731 -5.03001
LeftFoot  -2.19416 0.0274375 -0.188799
LeftToes  -1.03319e-009 7.52634e-011 -3.26162e-012
289
root  40.3847 37.8128 0.650216 -143.194 83.8919 -135.599
RightUpLeg  -7.66248 -10.0623 5.79526
RightLeg  27.1837 1.92297 0.838594
RightFoot  -11.4512 -0.0834571 -5.45432
RightToes  -1.33073e-015 0 -3.6325e-017
Spine  17.9144 -2.30477 15.1766
Spine1  13.8554 0.809731 -2.29967
HEad  -11.0666 -5.11847 -3.45446
LeftShoulder1  0.583392 1.83852 -28.8996
LeftArm  -0.0614116 -15.9047 -38.9769
LeftForeArm  6.85913 -59.7331 -19.0818
LeftHand  -0.0240196 2.10453 0.470199
RightShoulder  0.110962 -3.10003 23.0566
RightArm  -6.88392 3.63533 35.9125
RightForeArm  18.6965 72.4144 37.8972
RightHand  -0.147 1.1916 -2.71496
LeftUpLeg  -24.7534 1.62557 5.97538
LeftLeg  48.5573 -3.59965 -3.98633
LeftFoot  -2.62823 0.0419613 -0.329139
LeftToes  -1.03319e-009 7.52634e-011 -3.26162e-012
290
root  41.2969 37.8276 0.648983 -142.969 83.9526 -135.971
RightUpLeg  -6.81921 -9.92319 5.76152
RightLeg  27.3867 1.67641 0.695934
RightFoot  -12.6271 -0.151415 -5.89479
RightToes  -1.33073e-015 0 -3.6325e-017
Spine  19.2539 -2.33538 14.9923
Spine1  13.5653 0.821579 -2.77016
HEad  -12.979 -5.3882 -3.01492
LeftShoulder1  0.657936 1.60127 -28.4819
LeftArm  0.201432 -18.7797 -39.5382
LeftForeArm  5.99574 -57.1524 -17.1532
LeftHand  -0.0263451 2.52716 0.523118
RightShoulder  0.182262 -2.8463 22.4756
RightArm  -5.93754 7.7315 36.7478
RightForeArm  10.9055 68.4875 29.5729
RightHand  -0.133815 1.1288 -2.50847
LeftUpLeg  -25.0391 2.04304 5.58931
LeftLeg  36.0844 -3.57729 -2.41775
LeftFoot  -1.80031 0.143147 -1.59943
LeftToes  -1.03319e-009 7.52634e-011 -3.26162e-012
291
root  42.1978 37.8085 0.634107 -138.265 84.1318 -131.897
RightUpLeg  -6.10995 -9.1702 6.08977
RightLeg  27.6165 1.23498 0.455768
RightFoot  -13.7701 -0.219776 -5.99967
RightToes  -1.33073e-015 0 -3.6325e-017
Spine  20.2441 -2.49874 15.2338
Spine1  14.1416 1.0762 -3.94795
HEad  -14.8783 -5.32162 -2.35488
LeftShoulder1  0.792029 1.17539 -27.8745
LeftArm  -0.0560176 -21.2627 -39.8399
LeftForeArm  4.78676 -54.7164 -15.6357
LeftHand  -0.0222828 2.86786 0.314099
RightShoulder  0.257933 -2.56776 21.9585
RightArm  -5.02622 11.5106 37.8574
RightForeArm  6.04397 64.7506 24.439
RightHand  -0.13664 1.95607 -2.33117
LeftUpLeg  -24.4406 3.99962 5.09818
LeftLeg  23.4718 -3.67182 -1.42065
LeftFoot  -0.87793 0.24941 -2.6282
LeftToes  -1.03319e-009 7.52634e-011 -3.26162e-012
292
root  43.0824 37.68 0.602436 -135.6 84.4337 -129.521
RightUpLeg  -5.57898 -8.71761 5.99147
RightLeg  28.9769 0.989695 0.352175
RightFoot  -15.5487 -0.316328 -5.72883
RightToes  -1.33073e-015 0 -3.6325e-017
Spine  21.433 -2.6375 14.5302
Spine1  15.2807 1.15363 -4.36965
HEad  -17.0286 -5.06243 -2.16881
LeftShoulder1  0.86148 0.955405 -27.6819
LeftArm  -0.0388841 -23.8037 -40.0236
LeftForeArm  2.79202 -52.2299 -14.3578
LeftHand  -0.0160664 3.30508 -0.0959717
RightShoulder  0.369081 -2.13547 21.0634
RightArm  -3.90405 15.4444 39.102
RightForeArm  1.87158 60.8409 20.6044
RightHand  -0.169246 2.80888 -2.60695
LeftUpLeg  -23.3516 6.19675 3.96985
LeftLeg  13.7146 -2.4167 -0.524502
LeftFoot  0.826158 0.459357 -4.35076
LeftToes  -1.03319e-009 7.52634e-011 -3.26162e-012
